<?xml version="1.0" standalone="no"?><!DOCTYPE svg PUBLIC "-//W3C//DTD SVG 1.1//EN" "http://www.w3.org/Graphics/SVG/1.1/DTD/svg11.dtd"><svg class="icon" width="200px" height="200.00px" viewBox="0 0 1024 1024" version="1.1" xmlns="http://www.w3.org/2000/svg"><path fill="#515151" d="M874.18957 206.713242l-168.805128 0c-14.555903-24.083732-36.533127-42.527531-62.6895-50.815839-12.738391-64.827617-66.069396-113.625001-129.725226-113.625001-63.621963 0-116.95071 48.795126-129.707163 113.625001-26.172178 8.288308-48.133597 26.732107-62.6895 50.815839L151.788245 206.713242c-63.827421 0-115.763118 52.38048-115.763118 116.74751l0 555.140518c0 64.371546 51.935697 116.749768 115.763118 116.749768L874.18957 995.351038c63.809359 0 115.729252-52.378222 115.729252-116.749768L989.918821 323.460752C989.918821 259.091464 937.998928 206.713242 874.18957 206.713242zM449.961869 185.754277c0-40.761948 28.262881-73.915179 63.010105-73.915179 34.765286 0 63.046229 33.153231 63.046229 73.915179 0 7.915774 2.752233 15.115832 7.200058 20.958965l-140.458708 0C447.211894 200.870109 449.961869 193.670051 449.961869 185.754277zM920.354383 878.603528c0 26.018649-20.703836 47.180814-46.162556 47.180814L151.788245 925.784342c-25.476782 0-46.196422-21.162165-46.196422-47.180814L105.591823 323.460752c0-26.018649 20.719641-47.180814 46.196422-47.180814l150.598395 0c1.783646 17.545203 16.423087 31.28379 34.426619 31.28379 18.003532 0 32.642973-13.738587 34.426619-31.28379l283.464192 0c1.783646 17.545203 16.423087 31.28379 34.426619 31.28379s32.642973-13.738587 34.426619-31.28379l150.632262 0c25.458719 0 46.162556 21.162165 46.162556 47.180814L920.352125 878.603528zM773.354888 409.33313 252.607122 409.33313c-19.209186 0-34.783348 15.592224-34.783348 34.783348 0 19.227249 15.574162 34.783348 34.783348 34.783348l520.747766 0c19.209186 0 34.783348-15.556099 34.783348-34.783348C808.140494 424.925354 792.564074 409.33313 773.354888 409.33313zM773.354888 566.298463 252.607122 566.298463c-19.209186 0-34.783348 15.558357-34.783348 34.783348 0 19.193382 15.574162 34.783348 34.783348 34.783348l520.747766 0c19.209186 0 34.783348-15.589966 34.783348-34.783348C808.140494 581.856821 792.564074 566.298463 773.354888 566.298463zM773.354888 723.164454 252.607122 723.164454c-19.209186 0-34.783348 15.558357-34.783348 34.783348 0 19.193382 15.574162 34.783348 34.783348 34.783348l520.747766 0c19.209186 0 34.783348-15.589966 34.783348-34.783348C808.140494 738.720554 792.564074 723.164454 773.354888 723.164454z" /></svg>