<?xml version="1.0" standalone="no"?><!DOCTYPE svg PUBLIC "-//W3C//DTD SVG 1.1//EN" "http://www.w3.org/Graphics/SVG/1.1/DTD/svg11.dtd"><svg class="icon" width="200px" height="200.00px" viewBox="0 0 1024 1024" version="1.1" xmlns="http://www.w3.org/2000/svg"><path fill="#515151" d="M856.07 62.928c-6.069-0.202-12.137-0.143-18.204-0.073-2.111 3.276-7.042-0.72-9.382 1.973-42.502 11.082-63.836 39.315-66.289 83.294-22.592-8.708-45.025-14.691-68.493-17.123-33.52-3.472-66.392-0.14-98.882 7.671-73.252 17.609-135.63 55.429-191.549 104.727-23.131 20.391-44.11 43.268-73.094 56.204-33.743 15.06-69.6 22.07-105.412 29.472-26.917 5.563-54.073 9.941-80.193 19.082-28.344 9.919-43.609 29.883-48.094 58.976-0.248 1.604-1.026 3.128-1.558 4.689-0.428 0.654-0.838 0.951-1.234 0.904-0.36 3.022 0.837 6.241-1.049 9.067v2.017c1.616 4.703 1.616 9.408 0 14.112v2.016c2.042 3.522 0.593 7.397 1.075 11.074 0.398-0.042 0.812 0.254 1.246 0.899 4.856 24.675 10.707 49.021 20.502 72.342 23.134 55.088 56.48 103.612 95.294 148.56 57.849 66.984 122.055 126.791 199.032 171.524 43.021 25.001 88.344 44.349 139.034 46.113 29.544 1.026 58.142-2.932 77.696-29.063 9.578-12.804 14.277-28.023 18.469-43.258 10.142-36.868 16.82-74.606 28.112-111.203 11.466-37.171 29.511-70.257 57.027-98.229 42.312-43.007 76.597-91.694 99.531-147.737 26.965-65.886 37.127-133.604 19.166-203.78-2.648-10.343-6.485-20.382-9.768-30.555 52.39-8.246 75.745-27.296 84.419-68.902 2.106-1.774-0.595-5.821 1.814-7.453 0-5.812 0-11.621-0.002-17.437 1.78-33.634-36.653-71.388-69.214-69.903zM713.602 212.17c-63.375 12.031-110.638 51.243-155.925 93.298-44.167 41.01-82.854 87.1-120.789 133.804-35.863 44.159-78.842 78.641-133.451 96.857-11.087 3.699-22.761 5.652-34.189 8.305-9.333 2.162-17.313-0.083-25.222-5.864-21.225-15.514-37.568-34.376-44.698-60.183-1.065-3.855-1.444-7.902-2.106-11.867-0.814-4.881 0.397-7.128 6.214-7.032 50.108 0.808 95.662-15.318 139.082-38.584 47.515-25.46 87.841-60.354 126.789-97.125 31.973-30.178 62.314-62.242 98.834-87.307 41.194-28.274 86.231-39.375 135.741-30.724 3.28 0.573 6.47 1.659 9.7 2.507 1.213 1.301 1.202 2.604 0.02 3.915z m130.397-27.134c-21.827 0.268-40.535-18.128-40.853-40.175-0.317-21.873 18.053-40.513 40.166-40.757 22.12-0.245 40.516 17.832 40.774 40.069 0.257 21.961-18.019 40.591-40.087 40.863zM293.583 804.778c-36.129-27.769-67.318-60.567-95.897-95.891-4.033-4.986-7.153-5.387-12.305-2.238-28.591 17.47-43.271 42.538-41.04 76.27 2.122 32.024 19.519 54.07 47.306 68.693 9.869 2.226 19.734 4.455 29.602 6.684 32.548-0.071 57.401-13.675 74.14-41.847 2.802-4.72 3.221-7.804-1.806-11.671z" /></svg>