<?xml version="1.0" standalone="no"?><!DOCTYPE svg PUBLIC "-//W3C//DTD SVG 1.1//EN" "http://www.w3.org/Graphics/SVG/1.1/DTD/svg11.dtd"><svg class="icon" width="200px" height="200.00px" viewBox="0 0 1024 1024" version="1.1" xmlns="http://www.w3.org/2000/svg"><path fill="#515151" d="M89.8 348h116.9c14 0 25.5-11.8 25.5-26.4 0-14.6-11.4-26.4-25.5-26.4H89.8c-14 0-25.5 11.8-25.5 26.4 0 14.5 11.4 26.4 25.5 26.4zM89.8 537.7h116.9c14 0 25.5-11.8 25.5-26.4 0-7.1-2.6-13.7-7.5-18.7-4.8-5-11.2-7.7-18-7.7H89.8c-14 0-25.5 11.8-25.5 26.4 0 14.6 11.4 26.4 25.5 26.4zM232.2 700.3c0-7.1-2.6-13.7-7.5-18.7-4.8-5-11.2-7.7-18-7.7H89.8c-14 0-25.5 11.8-25.5 26.4 0 14.6 11.4 26.4 25.5 26.4h116.9c14 0 25.5-11.8 25.5-26.4zM744.4 735.5l-3.4-8.3c-10.3-25.1-28.4-49.6-52.2-70.9-18.7-16.8-40.9-31.5-64.2-42.8 23-14.9 42.5-35 56.5-58.3 16.7-27.6 25.5-59.3 25.5-91.7 0-99-80.6-179.6-179.6-179.6-99.1 0-179.6 80.6-179.6 179.6 0 32.5 8.9 64.2 25.6 91.9 14.1 23.3 33.7 43.4 56.8 58.3-23.2 11.2-45.3 26-64 42.7-23.7 21.3-41.7 45.8-52 70.8l-3.4 8.3"  /><path fill="#515151" d="M527 336c70.2 0 127.4 57.1 127.4 127.4 0 70.2-57.1 127.4-127.4 127.4s-127.4-57.1-127.4-127.4c0-70.2 57.1-127.4 127.4-127.4z"  /><path fill="#515151" d="M858.2 63.9H227.3c-55.1 0-99.9 43.1-99.9 96.1v71.9H181v-61.2c0-36.4 20-55.7 57.9-55.7h608.8c37.8 0 57.9 19.2 57.9 55.7v681.2c0 36.4-20 55.7-57.9 55.7H238.9c-37.8 0-57.9-19.2-57.9-55.7v-61.2h-53.6v70.8c0 53 44.8 96.1 99.9 96.1h630.9c55.1 0 99.9-43.1 99.9-96.1V159.9c0-52.9-44.8-96-99.9-96z"  /></svg>