<?xml version="1.0" standalone="no"?><!DOCTYPE svg PUBLIC "-//W3C//DTD SVG 1.1//EN" "http://www.w3.org/Graphics/SVG/1.1/DTD/svg11.dtd"><svg class="icon" width="200px" height="200.00px" viewBox="0 0 1024 1024" version="1.1" xmlns="http://www.w3.org/2000/svg"><path fill="#707070" d="M714.24 280.618667H302.677333V222.72000000000003C302.634667 116.73599999999999 387.242667 42.66666700000002 508.458667 42.66666700000002c121.17333299999999 0 205.824 74.069333 205.824 180.096v57.856z m-204.8 550.101333c0 0.426667-223.573333-133.333333-194.218667-285.525333 0 0 45.866667-155.861333 194.218667-28.16 0 0 148.693333-127.701333 192.72533299999998 35.498666 0 0 36.693333 135.68-192.72533299999998 278.186667z m411.434667-471.722667a79.018667 79.018667 0 0 0-78.805334-78.378666h-85.12V222.72000000000003C756.906667 91.60533299999997 654.762667 0 508.458667 0 362.11199999999997 0 259.9680000000001 91.60533299999997 259.9680000000001 222.72000000000003v57.856H174.80533300000002A79.018667 79.018667 0 0 0 96 358.997333L64 939.946667v1.152C64 984.7466670000001 99.41333299999997 1020.1599999999999 142.80533300000002 1020.1599999999999h731.306667a79.018667 79.018667 0 0 0 78.762667-79.061333l-32-582.101334z"  /></svg>