<?xml version="1.0" standalone="no"?><!DOCTYPE svg PUBLIC "-//W3C//DTD SVG 1.1//EN" "http://www.w3.org/Graphics/SVG/1.1/DTD/svg11.dtd"><svg class="icon" width="200px" height="200.00px" viewBox="0 0 1024 1024" version="1.1" xmlns="http://www.w3.org/2000/svg"><path fill="#707070" d="M864.678941 31.33186h-64.000733c-17.709567 0-38.128346 10.889624-38.128346 28.593327s20.418779 35.401542 38.128346 35.401542h64.000733c38.128346 0 64.000733 25.872387 64.000733 64.000733v736.671072c0 38.128346-25.872387 64.000733-64.000733 64.000733H175.665368c-38.122482 0-80.338102-25.872387-80.338101-64.000733V159.333326c0-38.122482 25.872387-64.000733 64.000733-64.000733h80.338101c17.703703 0 24.511917-17.703703 24.511918-35.407406s-6.808214-28.593327-24.511918-28.593327h-80.338101C69.454879 31.33186 31.326534 87.163908 31.326534 160.693796v728.496524c0 78.977632 47.6575 134.797952 134.803816 134.797952h691.728648c87.134588 0 134.803816-46.302894 134.803816-134.797952V160.693796c0.005864-73.535752-44.924832-129.361936-127.983873-129.361936zM239.666101 320.009529c0 17.703703 14.982763 32.674737 32.668874 32.674738h480.679868c17.697839 0 32.674737-14.976899 32.674738-32.674738 0-17.703703-14.982763-32.680602-32.674738-32.680601H272.334975c-17.686111 0.005864-32.668873 14.976899-32.668874 32.680601z m511.988272 144.344699H272.334975c-17.697839 0-32.668873 14.976899-32.668874 32.680602 0 17.697839 14.982763 32.674737 32.668874 32.674737h480.679868c17.697839 0 32.674737-14.982763 32.674738-32.674737-1.348742-19.070037-16.337369-32.680602-34.035208-32.680602z m0 191.984607H272.334975c-17.697839 0-32.668873 14.988627-32.668874 32.686465s14.982763 32.668873 32.668874 32.668874h480.679868c17.697839 0 32.674737-14.976899 32.674738-32.668874-1.348742-19.064173-16.337369-32.686466-34.035208-32.686465zM401.702775 111.675825h223.316466c25.884115 0 47.6575-25.872387 47.657501-55.832048 0-29.953797-21.785113-55.832049-49.006243-55.832049h-221.955996c-27.238721 0-49.01797 25.872387-49.01797 55.832049-0.011728 29.959661 21.767521 55.832049 49.006242 55.832048z"  /></svg>